<svg id="Layer_1" data-name="Layer 1" xmlns="http://www.w3.org/2000/svg" viewBox="0 0 2816.9 1366"><defs><style>.cls-1{fill:#a020ef;}.cls-2{fill:#fff;}</style></defs><path class="cls-1" d="M2354,1105.73H540.54c-223.77,0-405.17-181.4-405.17-405.17V688.83c0-223.77,181.4-405.17,405.17-405.17H2759.2v416.9C2759.2,924.33,2577.8,1105.73,2354,1105.73Z"/><path class="cls-2" d="M1144.21,439.08V637.53h-51.12V558.69h-48.54v78.84H993.43V439.08h51.12v75.81h48.54V439.08Z"/><path class="cls-2" d="M1321.11,462.19V637.53H1270v-49.4h-45v49.4h-51.26V462.19q0-10.33,6.46-16.72t16.8-6.39h101q10.34,0,16.73,6.39T1321.11,462.19Zm-96.07,83h45V485.46a5.27,5.27,0,0,0-1.94-4.31,7.85,7.85,0,0,0-5.1-1.58h-31.73a6,6,0,0,0-4.46,1.72,5.72,5.72,0,0,0-1.72,4.17Z"/><path class="cls-2" d="M1443.44,563.43h51.12v51.41a21.45,21.45,0,0,1-6.82,16.15,22.91,22.91,0,0,1-16.44,6.54h-99.66A22.45,22.45,0,0,1,1349,614.84V461.33a21.36,21.36,0,0,1,6.61-15.65,21.88,21.88,0,0,1,16.08-6.6h99.66a22.87,22.87,0,0,1,16.37,6.6,21,21,0,0,1,6.89,15.65V512.6h-51.12V484.88a3,3,0,0,0-.93-2.22,2.67,2.67,0,0,0-1.8-.94h-37.33a3.06,3.06,0,0,0-2.23.94,3,3,0,0,0-.93,2.22V591.72a2.59,2.59,0,0,0,.93,2.08,3.33,3.33,0,0,0,2.23.79h37.33a2.64,2.64,0,0,0,1.87-.86,2.77,2.77,0,0,0,.86-2Z"/><path class="cls-2" d="M1680.08,637.53h-55.86l-38.77-75.82-16.23,26.13v49.69H1518.1V439.08h51.12v82.56l51.41-82.56h57.15l-57.44,86.15Z"/><path class="cls-2" d="M1834.29,462.19V637.53h-51.12v-49.4h-45v49.4H1687V462.19q0-10.33,6.46-16.72t16.8-6.39h101q10.33,0,16.73,6.39T1834.29,462.19Zm-96.07,83h45V485.46a5.27,5.27,0,0,0-1.94-4.31,7.83,7.83,0,0,0-5.1-1.58H1744.4a6,6,0,0,0-4.46,1.72,5.72,5.72,0,0,0-1.72,4.17Z"/><path class="cls-2" d="M1845.48,439.08h141.15V482h-45.09V637.53h-51.12V482h-44.94Z"/><path class="cls-2" d="M2150.32,439.08V637.53H2099.2V558.69h-48.53v78.84h-51.12V439.08h51.12v75.81h48.53V439.08Z"/><path class="cls-2" d="M2203.16,439.08h102.09q10.35,0,16.8,6.39t6.46,16.72V614.26q0,10.35-6.46,16.8t-16.8,6.47H2203.16q-10.35,0-16.81-6.47t-6.46-16.8V462.19q0-10.33,6.46-16.72T2203.16,439.08ZM2277.25,592V485.17a3.18,3.18,0,0,0-3.16-3.16h-40.35a2.41,2.41,0,0,0-1.72.93,3.17,3.17,0,0,0-.86,2.23V592a2.34,2.34,0,0,0,.86,1.79,2.55,2.55,0,0,0,1.72.79h40.35a3.34,3.34,0,0,0,2.23-.79A2.3,2.3,0,0,0,2277.25,592Z"/><path class="cls-2" d="M2463.05,637.53l-58-109.14V637.53h-47V439.08h47l59.45,109.27V439.08h47.1V637.53Z"/><path class="cls-2" d="M1233,694.69h59.19a.78.78,0,0,1,.76.92L1243.69,957.4a.78.78,0,0,1-.76.64h-58.41a.78.78,0,0,1-.75-.57L1144.08,814a.78.78,0,0,0-1.5,0l-40.81,143.5a.77.77,0,0,1-.74.57h-57.28a.78.78,0,0,1-.76-.63L993.17,695.62a.79.79,0,0,1,.76-.93h64.89a.78.78,0,0,1,.77.67l22.17,160.38a.78.78,0,0,0,1.53.06l34.58-160.49a.77.77,0,0,1,.75-.62h54.58a.78.78,0,0,1,.76.62l32.54,155.85a.77.77,0,0,0,1.52,0l24.21-155.77A.77.77,0,0,1,1233,694.69Z"/><path class="cls-2" d="M1508,725.37V957.26a.78.78,0,0,1-.78.78h-66.28a.78.78,0,0,1-.78-.78v-64a.77.77,0,0,0-.78-.77h-58.09a.77.77,0,0,0-.77.77v64a.78.78,0,0,1-.78.78h-66.47a.78.78,0,0,1-.78-.78V725.37q0-13.71,8.58-22.2t22.29-8.48h134q13.71,0,22.2,8.48T1508,725.37ZM1381.28,835.51h58.09a.78.78,0,0,0,.78-.77v-78.5a7,7,0,0,0-2.57-5.71,10.38,10.38,0,0,0-6.77-2.1H1388.7a8,8,0,0,0-5.93,2.31,8.71,8.71,0,0,0-2.26,6.17v77.83A.78.78,0,0,0,1381.28,835.51Z"/><path class="cls-2" d="M1692.34,957.62,1617,816a.78.78,0,0,0-1.46.37V957.26a.78.78,0,0,1-.77.78h-60.76a.78.78,0,0,1-.78-.78V695.47a.78.78,0,0,1,.78-.78h61.07a.79.79,0,0,1,.68.41L1693,837a.78.78,0,0,0,1.46-.37V695.47a.78.78,0,0,1,.77-.78h61a.78.78,0,0,1,.78.78V957.26a.78.78,0,0,1-.78.78H1693A.78.78,0,0,1,1692.34,957.62Z"/><path class="cls-2" d="M1799,957.26V901.84a.78.78,0,0,1,.78-.78h97.93q4.38,0,4.38-3.43v-38.3a3.24,3.24,0,0,0-1.24-2.57,4.71,4.71,0,0,0-3.14-1h-67.84q-13.73,0-22.29-8.48T1799,825V725.37q0-13.71,8.58-22.2t22.29-8.48h135.28a.77.77,0,0,1,.77.78v55a.77.77,0,0,1-.77.78h-94.31a3.72,3.72,0,0,0-2.86,1.24,4.2,4.2,0,0,0-1.14,3v38.68a3.29,3.29,0,0,0,1.14,2.29,3.89,3.89,0,0,0,2.86,1.14h67.83q13.72,0,22.3,8.58t8.57,22.29v98.71q0,13.71-8.57,22.29t-22.3,8.58H1799.79A.78.78,0,0,1,1799,957.26Z"/><path class="cls-2" d="M2203.1,725.37V957.26a.78.78,0,0,1-.78.78H2136a.78.78,0,0,1-.78-.78v-64a.76.76,0,0,0-.77-.77H2076.4a.77.77,0,0,0-.78.77v64a.77.77,0,0,1-.77.78h-66.48a.77.77,0,0,1-.77-.78V725.37q0-13.71,8.57-22.2t22.3-8.48h134q13.73,0,22.2,8.48T2203.1,725.37ZM2076.4,835.51h58.09a.77.77,0,0,0,.77-.77v-78.5a7,7,0,0,0-2.57-5.71,10.35,10.35,0,0,0-6.76-2.1h-42.11a8,8,0,0,0-5.93,2.31,8.71,8.71,0,0,0-2.27,6.17v77.83A.78.78,0,0,0,2076.4,835.51Z"/><path class="cls-2" d="M2224.58,694.69h185.76a.77.77,0,0,1,.77.78v55.42a.77.77,0,0,1-.77.78h-58.28a.78.78,0,0,0-.78.77V957.26a.78.78,0,0,1-.78.78h-66.28a.78.78,0,0,1-.78-.78V752.44a.77.77,0,0,0-.77-.77h-58.09a.78.78,0,0,1-.78-.78V695.47A.78.78,0,0,1,2224.58,694.69Z"/><path class="cls-2" d="M2501.56,695.47V957.26a.78.78,0,0,1-.78.78h-65.9a.78.78,0,0,1-.78-.78V695.47a.78.78,0,0,1,.78-.78h65.9A.78.78,0,0,1,2501.56,695.47Z"/><circle class="cls-2" cx="572.56" cy="694.97" r="368.39"/><path class="cls-1" d="M558.64,601.8l8.13,65.42.16,1.28,1.11.69.66.43a11.47,11.47,0,0,0,7.14,2.27c14.67,0,25.29-14.14,25.29-23.67v-6.45c0-1.81,0-3.8.06-5.9.22-14.73.49-33.07-7.5-41.18a13.23,13.23,0,0,0-9.79-4h-1.61c-13.1,0-18.93,3.26-21.52,6a6.83,6.83,0,0,0-2.15,4.93v.09Z"/><path class="cls-1" d="M622.6,678.34h11.28c12.54,0,18.84-21.38,18.84-33.35,0-17.19-13.9-38.18-30.12-38.18-4,0-6.8,4.48-8.84,14.11a131.93,131.93,0,0,0-2.43,25.88c0,5.77.36,14.06,2.08,20.72C615.27,674.7,618.36,678.34,622.6,678.34Z"/><path class="cls-1" d="M535.54,681.57h1.61c9.18,0,10.59-5.13,10.77-7.34V674c0-2.34.06-5.23.14-8.57.44-20.36,1.11-51.14-9-61.44a11.4,11.4,0,0,0-8.4-3.64c-3.74,0-17.23,6.95-17.23,14,0,1.78,0,3.7,0,5.73-.16,19.32-.37,45.76,10.4,56.62A15.93,15.93,0,0,0,535.54,681.57Z"/><path class="cls-1" d="M496.85,697.69c7.15,0,10.78-6.88,10.78-20.45v-25.8c0-12.46-3.16-19.65-10.88-24.83l-1.51-1-1.52,1C486,631.82,478,639,478,653.05v16.12C478,677.45,488.06,697.69,496.85,697.69Z"/><path class="cls-1" d="M668.72,928.94A13.26,13.26,0,0,0,655.53,916h-51c0-17.82.08-93.14,0-114.28,1.76-7.69,8.93-11.6,18.83-17,2.42-1.31,4.91-2.67,7.54-4.2,2.35-1.36,4.78-2.66,7.14-3.91,12.91-6.86,26.26-14,27.33-34.49l.08-1.44c.74-14.1,1.67-31.64-6.91-40.68-3.7-3.91-8.83-5.88-15.23-5.88h-1.58l-61.22-1.62h-1.69A10.8,10.8,0,0,0,568,703.31c0,19.66,16.42,21.93,28.77,21.93,5,0,10.34-.38,15.51-.75,4.28-.3,8.7-.62,12.8-.7a12.66,12.66,0,0,0,.73,1.79c.18.37.23.48.23,1.91,0,4.69-.55,7.65-1.63,8.81-.76.81-2.22,1-4.65,1h-2.44a32,32,0,0,0-11,1.62c-1.23.43-3.3,1.22-5.7,2.13-5.37,2-16.53,6.31-18.64,6.35-2.29-.22-11.09-7.37-15.81-11.21a87,87,0,0,0-9.2-7c-2-1-21.53-7.62-33-7.62H499.79c-6.09,0-9.17,5.26-9.17,15.62,0,23.21,22.52,43.47,36,55.57,4,3.6,8.52,7.66,9.17,9.12V916H487.2A13.21,13.21,0,0,0,474,929.22v45.11a13.21,13.21,0,0,0,13.19,13.2h48.56v54.62a4.32,4.32,0,0,0,3.35,4.23c2.87.66,9.68,1,20.23,1,15.84,0,35.62-.77,41.23-1.29a4.3,4.3,0,0,0,3.92-4.31V987.53h52a13.22,13.22,0,0,0,13.19-13.48Z"/><path class="cls-1" d="M761.36,927.48a25,25,0,0,1-16.31-43.92,257.44,257.44,0,0,0,89.09-185.24c2.47-68-22-133.27-68.94-183.74S655,434.94,586.94,432.47c-141.47-5.13-260.71,105.74-265.85,247.19a255.49,255.49,0,0,0,88.53,203.42,25,25,0,0,1-32.7,37.78,306.85,306.85,0,0,1-105.76-243c3-81.35,37.77-157,98-213s138.21-85.24,219.58-82.28,157,37.77,213,98S887,618.79,884.07,700.14A307.59,307.59,0,0,1,777.64,921.43,24.88,24.88,0,0,1,761.36,927.48Z"/><path class="cls-1" d="M697.18,844.27a27.18,27.18,0,0,1-17.74-47.79,153,153,0,0,0,52.94-110.07c1.47-40.4-13.09-79.17-41-109.18s-65.51-47.34-105.91-48.81-79.16,13.09-109.17,41S429,634.92,427.5,675.31a151.81,151.81,0,0,0,52.61,120.88,27.18,27.18,0,0,1-35.58,41.11,205.87,205.87,0,0,1-71.36-164c2-54.91,25.48-106,66.12-143.75s93.26-57.5,148.17-55.5,106,25.48,143.75,66.12,57.5,93.26,55.5,148.17A207.5,207.5,0,0,1,714.9,837.69,27.05,27.05,0,0,1,697.18,844.27Z"/></svg>