<svg xmlns="http://www.w3.org/2000/svg" viewBox="0 0 118.97 83.38"><defs><style>.cls-1{fill:#a366a4;fill-rule:evenodd;}</style></defs><g id="Layer_2" data-name="Layer 2"><g id="Layer_1-2" data-name="Layer 1"><path class="cls-1" d="M101.05.18a7.79,7.79,0,0,0-.32.82c-.4.88-.94,1.74-1.41,2.58l-.83,1.51-.4.77c-.35.67-.73,1.31-1.1,2-.14.24-.33.44-.44.68s-.18.51-.3.75c-.67,1.3-1.4,2.56-2.15,3.81a11.3,11.3,0,0,0-.75,1.41c-.21-.59-1-1-1.29-1.51a10.58,10.58,0,0,0-.84-1.15c-.27-.32-.65-.56-.89-.91-.08-.12-.09-.26-.22-.33a7.17,7.17,0,0,0-.58.52,4.44,4.44,0,0,1-.56.66,4.43,4.43,0,0,0-.66.64c-.16.18-.36.33-.53.52a5.57,5.57,0,0,1-.69.76c-.14.13-.31.23-.44.37a8.51,8.51,0,0,1-.77.83,3,3,0,0,0-.89.95,10.33,10.33,0,0,1,.74.74c.2.18.43.33.62.53s.38.52.6.76.53.45.77.71a7,7,0,0,1,.69.91,3,3,0,0,1,.48.87,4.76,4.76,0,0,0,.58.9c.15.22.49.53.55.79.37.14.69.7.89,1a2.14,2.14,0,0,1,.23.38c.13.26.39.51.48.76s0,.28,0,.42,0,.32,0,.47c0,.39,0,.77,0,1.16,0,.78,0,1.56,0,2.34,0,1.51,0,3,.17,4.54.06.68.14,1.35.25,2,0,.32.11.64.18,1a3.31,3.31,0,0,0,.23.9,2.73,2.73,0,0,0,2.56,1.58,31.6,31.6,0,0,1,0,3.9,1.23,1.23,0,0,0-.1.2,2.85,2.85,0,0,0-.11.39c-.12.41-.18.83-.28,1.24a16.92,16.92,0,0,1-.72,2,9.39,9.39,0,0,1-.71,1.7,2.57,2.57,0,0,0-.36.77,5.16,5.16,0,0,1-.5,1c-.14.27-.3.53-.45.8-.52.93-1.2,1.8-1.79,2.7a19.34,19.34,0,0,1-2,2.64,34,34,0,0,1-4.22,4.27A13.14,13.14,0,0,1,81.3,62a23.74,23.74,0,0,1-2.65,1.58,31.18,31.18,0,0,1-6.18,2.33,7.51,7.51,0,0,1-.94.34,12.55,12.55,0,0,1-1.71.32l-.72.1-1.43.19c-.87.12-1.68.34-2.56.38a10.6,10.6,0,0,1,0,1.26,10.1,10.1,0,0,0,0,1.1c0,.42-.12.82-.12,1.24s-.06,1.09,0,1.63-.05.85-.05,1.28-.08.68,0,1,0,.66,0,1a9.69,9.69,0,0,0,1.49.48c.44.14.89.15,1.34.28,1,.29,1.94.72,2.95,1a13.52,13.52,0,0,1,0,3.71c-2-.49-3.9-1.18-6-1.63-.26.25-.08.94-.14,1.4a22.06,22.06,0,0,0-.14,2.37c-1.32.08-2.69.12-4.13.09.06-1.74.15-3.69.14-5.34-2.13-.55-4.28-1.44-6.45-2.09a7.22,7.22,0,0,1-.07-1.09c0-.38-.05-.75-.08-1.13a11.13,11.13,0,0,1-.11-1.91,3.86,3.86,0,0,0,1.19.48c.46.16.91.36,1.37.48.27.06.53.14.79.22.49.15,1,.32,1.46.49a23,23,0,0,0,2.77.91c0-.86.11-1.72.11-2.59V68.4c0-.22.12-1.09-.12-1.23a3.08,3.08,0,0,0-.61,0c-.47-.06-1-.14-1.45-.25a12.19,12.19,0,0,0-2.34-.2c-.7,0-1.37-.33-2.08-.4A7.19,7.19,0,0,1,53.17,66l-3.09-.88-2-.57-1-.28c-.16-.05-.83-.13-.92-.26a16.49,16.49,0,0,1-2-3.76,9.77,9.77,0,0,1,.23-4.18h.6a1,1,0,0,1,0,.41,1.6,1.6,0,0,1,.56.05c1.62,1.56,3.16,3.19,3.39,6.13a2.59,2.59,0,0,0,2.74.93,19.18,19.18,0,0,1,.51-3.9c1.64.36,3.27.73,4.92,1.07,1.34,0,2.66-.07,4-.13s2.5,0,3.73-.14a18,18,0,0,1,2.81-.34,2,2,0,0,0,.77-.24,6.91,6.91,0,0,1,.91-.15,14.85,14.85,0,0,0,1.77-.47c.77-.24,1.51-.63,2.29-.79a2.46,2.46,0,0,0,.48-.16l.61-.22a10.93,10.93,0,0,0,1.11-.48c.69-.34,1.28-.8,2-1.12a8.92,8.92,0,0,0,1-.55,11.85,11.85,0,0,0,1.77-1.3,30.43,30.43,0,0,0,5.44-6c0-.14.21-.12.27-.22a40.92,40.92,0,0,0,2.7-7c.16-.16.22-.43.37-.61a3.4,3.4,0,0,1,.14-1.06c-.16-5.2.54-11-.32-15.66,0-.15,0-.21,0-.32a6,6,0,0,0-1.21-1.35,2.43,2.43,0,0,0-1.48,1c-.07.1-1-.13-1-.18-.29-.2-.41-.69-.65-1s-.3-.29-.45-.45c-.5-.47-1-1-1.43-1.48a10.31,10.31,0,0,0-1.34-1.21l-.73-.54c-.38-.27-.83-.51-1.2-.82-.1-.09-.19-.21-.28-.3a5.91,5.91,0,0,0-.85-.64,1.3,1.3,0,0,0-.71-.25c0-.14.11-.22.15-.34a3.91,3.91,0,0,0,.1-.58c.07-.39.15-.78.23-1.16.16-.75.35-1.49.54-2.23.07-.26.05-.41.28-.58.14.09.26.23.39.33.3.25.64.44.93.69a3.81,3.81,0,0,1,.65.54,9.94,9.94,0,0,1,1-.59c.34-.24.64-.54,1-.77.84-.53,1.68-1,2.5-1.61l1.45-1c.25-.16.55-.29.78-.47s.27-.34.5-.4c-.08-.15-.29-.25-.42-.37-.41-.42-.79-.85-1.17-1.29a14.05,14.05,0,0,0-1.12-1.19,10.32,10.32,0,0,1-1.22-1.34,11.71,11.71,0,0,0,1.47-.44c.54-.15,1.09-.27,1.64-.38s.92-.32,1.4-.41c.9-.16,1.81-.29,2.71-.43.67-.12,1.32-.37,2-.49l.61-.13a5.23,5.23,0,0,0,.82-.26,13,13,0,0,1,1.72-.49c.38-.11.81-.13,1.2-.21,1-.2,1.89-.6,2.84-.85a1.94,1.94,0,0,1,.53-.12,1.1,1.1,0,0,0-.14.18"/><path class="cls-1" d="M73.54,3.24c.17.46.58.69.65,1.26,0,.12.22,0,.19.09.19.48.6.73.69,1.3,0,.1.34.37.41.47s.25.41.37.62c.21.38.47.72.67,1.1s.48.86.71,1.27c.1.17.25.3.35.47s.07.44.14.53a2.53,2.53,0,0,1,.51,1.49c0,.31-.26.56-.32.88,0,.08,0,.23,0,.32-.15,2-1.39,3.77-1.65,5.74,0,.3,0,.95-.55.82-.35-.09-.66-.79-.81-1.08a18.24,18.24,0,0,1-1.15-3.15,9.44,9.44,0,0,1-.22-2.71,4.86,4.86,0,0,0-.17-2.31c-.08-.13-.25-.26-.37-.42s-.26-.56-.37-.7c-.27-.32-.74-.43-.93-.74-.58,0-.57.58-.93.79a7,7,0,0,0-.7,2.19,45.47,45.47,0,0,0-.5,5.21l-.12,2.7c0,.45,0,.93-.06,1.38,0,.21,0,.7-.14.85s-1.53.54-1.59.35a1.7,1.7,0,0,1-.19-.83c0-.12-.31-.57-.35-.74-.09-.35,0-.71-.12-1.05a17.08,17.08,0,0,0-.61-1.92c-.17-.51-.23-1.1-.42-1.6s-.64-1-.8-1.6a9.71,9.71,0,0,1-.39-1.59c-.48-.16-.51-.77-.93-1a5.24,5.24,0,0,1-.7-.05c-.72.6-.67,1.81-.7,2.65,0,1.58-.41,3.16-.37,4.73a15.75,15.75,0,0,1-.23,4.7c0,.11-.21.07-.23.19v.74a7.25,7.25,0,0,1-1.26.05c.1-3.65-.24-8.27,0-12.31a13.51,13.51,0,0,1,1.16-3.91,17,17,0,0,1,1.39-3h.79c.06.14.25.16.19.42.07.08.28,0,.32.14a7.19,7.19,0,0,0,1.67,1.9,8.41,8.41,0,0,0,1.77,1.54C68,9.65,69.86,5.4,70,5.07c0-.05.13,0,.17-.09a3,3,0,0,0,.1-.32,2.69,2.69,0,0,1,.33-.54,7.73,7.73,0,0,1,.68-.88Z"/><path class="cls-1" d="M61.74,6.82c-.6,1.4-1.1,2.9-1.58,4.41a13.92,13.92,0,0,1-1.83,0H56.42c-.65,0-1.31,0-2,0a3.34,3.34,0,0,0-.62-.1,3.54,3.54,0,0,0-.9.25c-.18.06-.21.07-.25.25s0,.23-.23.29c-.4.12-.82.15-1.22.29s-.84.33-1.26.51a5.8,5.8,0,0,0-1.15.68c-.23.17-.44.38-.67.53-.38-.34-.14-.78-.31-1.19a1,1,0,0,0-.46-.46,16.72,16.72,0,0,0-4,3v1.35c0,.09-.66.5-.76.58-.32.26-.66.48-1,.72a12.48,12.48,0,0,0-.92.86c-.32.27-.73.4-1,.68s-.27.07-.54,0a4.82,4.82,0,0,0-.93,0,6.63,6.63,0,0,0-1.65.34,6.13,6.13,0,0,0-.75.29c-.14.06-.5.31-.64.29-.35,0-.7.06-1,0s-.57-.07-.32-.33a6,6,0,0,0,.55-.7,2.4,2.4,0,0,1,.47-.59,13.8,13.8,0,0,0,1.13-1,5.61,5.61,0,0,1,1.16-1.07c0-.27.42-.51.58-.7s.27-.26.4-.42.51-.55.76-.84a5.47,5.47,0,0,1,.68-.58,11.21,11.21,0,0,1,1-.79c.22-.14.46-.25.68-.41s.33-.31.51-.46.33-.3.51-.43a7.52,7.52,0,0,1,1.23-.63,2.85,2.85,0,0,0,.51-.3,2.2,2.2,0,0,1,.32-.21c.19-.13.38-.28.58-.39.59-.31,1.2-.54,1.8-.84a8,8,0,0,1,1.4-.56c.19,0,.31-.16.49-.22s.4-.07.58-.14.37-.16.57-.22.51-.09.77-.15a18.71,18.71,0,0,0,1.95-.53,11.48,11.48,0,0,1,2.32-.53c.38-.06.76-.1,1.14-.13S56.72,7,57.14,7s1-.07,1.49-.1c1,0,2.07-.06,3.11,0"/><path class="cls-1" d="M66.57,7.24h1.72c-.17.57-.44,1-.65,1.58-.46,0-1.47-1.12-1.44-1.49,0-.07.33-.63.37-.09"/><path class="cls-1" d="M71.78,9.14a6,6,0,0,1,1.15,1.35,22.68,22.68,0,0,1,.28,3.3c-.92-.18-1.44-.76-2.55-.75a.69.69,0,0,0-.14-.6c.23-1.29.21-2.83,1.21-3.34,0,0,0,0,0,0"/><path class="cls-1" d="M55.5,13.45c0,.33.11.66.16,1,.07.5.16,1,.23,1.54s.13,1.3.22,2a20.9,20.9,0,0,1,.17,2.24,33,33,0,0,1-.11,4.66c-.09.12-.15.26-.33.28,0,.41-.12.71-.42.84a7.3,7.3,0,0,1-.93,1.9c-.46.08-.67.41-1.25.37-.12,0-.08.2-.19.24a12.53,12.53,0,0,1-3.67.37c-.2.06-.12-.16-.27-.14h-.75a10.36,10.36,0,0,1-1.73-1.57,9.13,9.13,0,0,1-1-1.85A15.64,15.64,0,0,1,44.71,22c-.14-.66-.21-1.33-.34-2a14.16,14.16,0,0,1-.53-2.11c-.06-.82-.06-1.64-.08-2.46a15.25,15.25,0,0,1,3.63-2.7c.16.27.06.51.1.79s.24.59.31.9c.17.81.06,1.64.22,2.45s.33,1.67.52,2.5.4,1.75.59,2.62c.09.45.19.89.27,1.34,0,.22.06,1.16.22,1.29a1.33,1.33,0,0,1,.28.61c.42.69,1.5.34,1.9-.19a4.59,4.59,0,0,0,.52-2.66,7.11,7.11,0,0,1,.06-1.46,6.19,6.19,0,0,0,.23-1.42c0-.43-.06-.87-.06-1.3s.18-.83.2-1.26c0-.72,0-1.44.06-2.17,0-.33.08-.65.14-1a5.06,5.06,0,0,0,.24-.79v-.89c.19-.15.14-.39.33-.46s.88,0,1.3-.09c.18.16.43.25.56.46s0,.78.07,1.05,0,.25,0,.38"/><path class="cls-1" d="M114.06,24.3l-.13.06c-.3.16-.6.2-.9.33a1.66,1.66,0,0,0-.4.2,3.08,3.08,0,0,1-1.74.65c0,.35-.64.14-.7.46s.26.21.19.52h.46c2.63,1.36,5.33,2.66,8.13,3.85a8.21,8.21,0,0,1-1.52,1.6c-.4.4-1,.68-1.32,1.18-1.2-.53-2.45-.92-3.67-1.38-.55-.21-1.13-.34-1.68-.56a5.69,5.69,0,0,0-1.57-.47c-.28.42-.09,1.17-.14,1.81a5.06,5.06,0,0,0,0,1c-.34,0-.54.07-.88,0-.11.05,0,.29,0,.42h-1.26v-.42c0-.13-.25,0-.23-.09A20.39,20.39,0,0,1,105.37,29c0-.32-.21-.62-.25-.94s-.1-.62-.14-.94c-.11-.85-.2-1.73-.26-2.58a29.84,29.84,0,0,1-.06-3c0-.29.2-.72.07-1s-.43-.19-.77-.14c0,0,0,.05,0,.07-.2-.23-.39-.48-.6-.7s-.4-.33-.43-.48c-.06-.32.43-.62.45-1a9.13,9.13,0,0,0,1.85-.47,3.47,3.47,0,0,1,1.58-.29c.17.05,0-.21.19-.19a49.43,49.43,0,0,1,8.91-.23,23.92,23.92,0,0,1,2.6,3.72c.22.44.52.89.28,1.3-1.54.77-3.2,1.39-4.72,2.15m-2-3.93-1.25.19a5.55,5.55,0,0,1-1.79.52c0,.76,0,1.53,0,2.29,0,.19-.07.88.11,1s.48-.18.63-.25a4.81,4.81,0,0,1,.79-.21,8.19,8.19,0,0,0,1.59-.87c.43-.25.87-.43,1.27-.64a8,8,0,0,1,.93-.25c.22-.08.39-.14.61-.2.5-.14.86-.36,1.29-.52,0-.27-.38-.41-.56-.55-1-.83-2.35-.67-3.58-.5"/><path class="cls-1" d="M100.7,19.53h0c.13,0,.4-.23.54-.19.51.17.13,2.63.13,3.1a.71.71,0,0,0-.51.09h-.47a6.69,6.69,0,0,0-3.2,2c-.09,0-.12.13-.28.1v.28c-1.27.32-.79,2.2-.88,3.76.1.08.32.05.42.14a10.59,10.59,0,0,1,1.29-.56c1.14-.19,2.59.15,3.82,0,.06.1.19.15.27.23s0,1-.12,1.15a4.8,4.8,0,0,1-1.4.46c-.64.19-1.23,1-1.7,1.43-.62.59-1.22,1.2-1.8,1.82s-1.23,1.38-.12,1.62c.74.16,1.52-.09,2.27.07.13,0,1-.77,1.18-.91.41-.33,1.07-.8,1.18-1.35.23,0,.83,0,.93.07s0,.85-.16,1-.33.44-.48.67c-.29.43-.72.77-1,1.2a9.75,9.75,0,0,0-.59.84A5.43,5.43,0,0,0,99.34,38l.14.05c-1,0-1.94,0-2.9,0-.13,0,0,.25-.09.23a21.25,21.25,0,0,1-2.6-.55,9.39,9.39,0,0,1-1.07-1.49,35.79,35.79,0,0,1-.64-7.16c0-1.28,0-2.57,0-3.86,0-.63,0-1.26,0-1.88s.26-.7.72-1a11.24,11.24,0,0,1,1.54-.79c.45-.22.91-.32,1.35-.55a22.85,22.85,0,0,1,2.43-.91,9.82,9.82,0,0,1,1.69-.46c.28-.05.57-.05.84-.11"/><path class="cls-1" d="M39.35,26.24l-.19.17c-.46.4-.76,1-1.21,1.49s-.66.63-1,.94c-.11.11-.93.76-.91.88.08.44.76.26,1.12.28a52.45,52.45,0,0,0,6,.42c.64.2,1.34-.07,2,.1s.08.43-.1.77a9.83,9.83,0,0,1-.87,1.4c-.84,1.05-1,2.27-2.59,2.27-.93,0-1.86-.06-2.79-.13a18.43,18.43,0,0,1-2.58-.18c-.18,0-.42-.19-.55,0,.2.53,0,1.17.13,1.72.11.32.35.55.37.9a2.2,2.2,0,0,1-.4,1.12,3.43,3.43,0,0,1-1.4-.49c-.1-.25-.36-.33-.38-.66a3.36,3.36,0,0,1-.74-.83,38,38,0,0,1-2.33-3.81A16.77,16.77,0,0,1,30,31a21.37,21.37,0,0,1-.64-2.32c-.22-.77-.33-1.58-.61-2.37a5.92,5.92,0,0,1-1.44.09,3.36,3.36,0,0,0-.19-1.2c.17-.55.55-.88.75-1.4h.28c-.13,0,.25-.76.31-.83a4.38,4.38,0,0,1,.71-.56,5.19,5.19,0,0,1,1.94-.73c.48-.07.95-.16,1.42-.24.86-.14,1.72-.45,2.56-.66a21.21,21.21,0,0,1,2.3-.74,3.85,3.85,0,0,1,3.05,1.31,8.22,8.22,0,0,1,.6.82c.16.21.5.38.48.66.36.18.47.61.42,1.2a10.51,10.51,0,0,1-1.07,1c-.34.25-.73.47-1,.75s-.33.27-.49.4m-7.11-.93a12.93,12.93,0,0,0,1.44,2.32c.3,1.05,1.13,0,1.63-.23.68-1,2-1.33,2.41-2.51-.1-.31-.6-.23-1-.23,0-.16,0-.38,0-.47a6.26,6.26,0,0,0-4.42,1.12"/><path class="cls-1" d="M21.52,22.65a1.83,1.83,0,0,1,.64-.1.42.42,0,0,1,.31.08c.44.34.31.9.28,1.39,0,.17,0,.34,0,.52a1.13,1.13,0,0,1-.1.52,2.18,2.18,0,0,0-.16.62,6.23,6.23,0,0,1-.44,1c-.17.42-.25.88-.39,1.31-.08.24-.3.26-.53.26s-1-.06-1,0V25.44c0-.45,0-.89,0-1.35,0-.29-.07-.56.24-.7a3.75,3.75,0,0,0,.74-.51,1.8,1.8,0,0,1,.4-.23"/><path class="cls-1" d="M86.32,43.42a6.38,6.38,0,0,0-.24-2.14A9.16,9.16,0,0,0,85.65,40a4.06,4.06,0,0,0-1-1,14.16,14.16,0,0,1-1.12-.93,5.82,5.82,0,0,0-3.72.28c0,.69-.15,1.63.18,2a1.88,1.88,0,0,0,1,0c.32-.23.4-1,.39-1.33a5.79,5.79,0,0,1,.83-.06,6.81,6.81,0,0,1,0,1.24c-.1.32-.27.63-.39,1a6.39,6.39,0,0,1-.48.94c-.14.23-.44.5-.44.76a4.49,4.49,0,0,1-2,.06,9.1,9.1,0,0,1-.54-1.31A11,11,0,0,0,78,40.44c-.19-.51-.5-1-.67-1.52a5.5,5.5,0,0,1-.07-1.08A9.9,9.9,0,0,0,76,38c-.46,0-.36-.13-.46-.54a9.26,9.26,0,0,1-.44-2c.33,0,.77.11.89-.16s-.06-.86-.08-1.13-.06-.75-.07-1.13a4.11,4.11,0,0,0,0-1.05c-.07-.16.16,0,.14-.13a5.26,5.26,0,0,1,.15-2c.23-.64.61-1.2.89-1.82s.86-1.32,1.54-1.15a9.22,9.22,0,0,0,.22,2,14.11,14.11,0,0,1,.34,2.32,21.7,21.7,0,0,0,.31,3.33c.89,0,1.77.11,2.66.15-.07-.58.46-1,.63-1.52a17.41,17.41,0,0,1,.7-2.15,2,2,0,0,0,.18-.92A11,11,0,0,1,84,28.4a10.47,10.47,0,0,1,.24-1.34c.1-.41.12-2,.68-1.91a8.38,8.38,0,0,0,0-.87c.08-.07.27,0,.42,0s0-.2,0-.28a3.76,3.76,0,0,0,1.16,0c.16-.18.22-.46.42-.6.24.19.49,0,.6-.19a9.43,9.43,0,0,1,1.12,1.16c.43,4.86.26,10.55.18,15.52-.27.52-.54,1.06-.78,1.62A1.75,1.75,0,0,0,87.2,43a4.08,4.08,0,0,1-.47.46Z"/><path class="cls-1" d="M35.27,25a.26.26,0,0,1,0,.32.75.75,0,0,1-.13.18c-.09.13-.12.28-.2.42a1.75,1.75,0,0,0-.18.29,1.6,1.6,0,0,1-.11.33,3.92,3.92,0,0,1-.25.32,1.33,1.33,0,0,0-.16.28c-.67-.17-.79-.88-1.07-1.44a.57.57,0,0,1,.26-.33c.11-.07.22-.17.33-.24a1.3,1.3,0,0,1,.56-.09c.19,0,.38,0,.58-.05s.2-.08.32,0"/><path class="cls-1" d="M39.49,26.42c0-.06.07,0,0,0"/><path class="cls-1" d="M21.09,28.88a3.28,3.28,0,0,1,.81-.14h2.38A2.17,2.17,0,0,1,26,30a13.94,13.94,0,0,1,1,1.59c.11.23.14.49.23.74a6.38,6.38,0,0,1,.29,1c.07.45.14.89.19,1.34a39.17,39.17,0,0,1,.31,4.59q0,1.19,0,2.37c0,.36,0,.73,0,1.09a1.73,1.73,0,0,1-.37.8c-.14.22-.24.47-.38.69a5.77,5.77,0,0,1-1.38,1.41,2.11,2.11,0,0,1-1,.55c-.48,0-1,0-1.46-.06a2,2,0,0,0,0-.24,11.91,11.91,0,0,0-1.6-.13,4.35,4.35,0,0,1-.94-.47,2.59,2.59,0,0,1-.37-.11,4.53,4.53,0,0,1-1.25-.93c-.14-.15-.32-.2-.47-.35a2.75,2.75,0,0,1-.36-.53c-.07-.1-.18-.18-.25-.27a1.64,1.64,0,0,1-.18-.54c-.14-.52-.25-1-.43-1.51a8,8,0,0,0-.27-.78,4.88,4.88,0,0,1-.37-1s0,0,0,0a6.64,6.64,0,0,0-.61-.7,8.69,8.69,0,0,1-.66-1l-.57-1a2.27,2.27,0,0,0-.4-.48.69.69,0,0,0-.17-.11s-.19,0-.19,0c0-.87,0-1.76,0-2.56.4,0,.92-.07,1-.52a3,3,0,0,1,.47-1.64,3,3,0,0,1,.83-.6,8.45,8.45,0,0,1,1.23-.64c.72-.28,1.51-.44,2.25-.66.32-.1.64-.22,1-.31M20.4,34c-1.12.12-.28,1.75,0,2.33.69,1.73,1.47,3.74,2,5.29.16.18.47.21.47.56.32-.07.42.1.69.09a6,6,0,0,0,1.63-1.62,37,37,0,0,0-.05-6.32c-.31-.23-.44-.64-1-.65,0,0-.06,0-.05,0-.86.49-2.42.29-3.67.27"/><path class="cls-1" d="M29.06,29.59a24.36,24.36,0,0,0,1.51,3.49c.31.57.66,1.13,1,1.68l.54.85c.1.16.51.63.5.8a18.59,18.59,0,0,0,2.23,10.17,3.72,3.72,0,0,1,.88,1.35c.11.31.55.62.71,1A6.67,6.67,0,0,0,38,50.67c.44.43.68,1.06,1.21,1.4a8.38,8.38,0,0,1,1.67,1.43c.19,1.18.4,2.34.61,3.49,0,.2-.19-.09-.28-.1s-.24-.13-.28-.28a37.58,37.58,0,0,0-4.46-3.15,2.37,2.37,0,0,0-.79-.1A2,2,0,0,0,34.29,55a4.11,4.11,0,0,1-.41-.42c-.14-.18-.34-.31-.47-.51s-.18-.46-.31-.67c-.24-.42-.59-.74-.81-1.19s-.57-1.12-.86-1.68A23.32,23.32,0,0,1,30,47.21a9.53,9.53,0,0,1-.62-1.69c-.08-.65-.18-1.3-.26-2-.19-1.45-.34-2.91-.4-4.38,0-.8.06-1.62,0-2.45-.1-1.3-.47-2.56-.44-3.86a8,8,0,0,1,.17-1.69c.16-.59.44-1.14.61-1.74a.78.78,0,0,1,0,.14"/><path class="cls-1" d="M70.14,31l.15,0s-.11,8.07-.1,8.79c-.07.16.16,0,.14.13,0,1.09.06,2.32,0,3.58a2.49,2.49,0,0,0,2.88,1.58c.39-.34.95,0,1.32-.35.08-.06.25-.33.34-.42a4.24,4.24,0,0,0,.67-1.24,11.31,11.31,0,0,1,1.29-.08s0,.72,0,.79a1,1,0,0,1-.14.57,9.49,9.49,0,0,1-.57,1.09,3.9,3.9,0,0,1-.36.54,11.54,11.54,0,0,1-1.1,1.22,11.18,11.18,0,0,0-1.11,1.07,5.32,5.32,0,0,1-1.11.82c-.34.24-.7.44-1,.67a12.19,12.19,0,0,1-1,.8c-.11,0-1.23.09-1.28,0a23.71,23.71,0,0,0-1.11-2.33,4.78,4.78,0,0,0-1.24-1.69c-.36-.3-.62-.89-1.09-1.09A15.53,15.53,0,0,1,65.87,43c0-.79.28-1.55.31-2.34,0-1.21,0-2.41,0-3.62a19.41,19.41,0,0,0,.22-2,6.89,6.89,0,0,1,.08-1.81c1.35-.33,2.06-1.55,3-2.36a2.6,2.6,0,0,0,.58.16"/><path class="cls-1" d="M9.1,36.91a.54.54,0,0,1,.16-.1,3.52,3.52,0,0,1,1.07,0c.06.2,0,.26.2.39a4.77,4.77,0,0,1,.74.62,8.6,8.6,0,0,1,.69,1,6.78,6.78,0,0,1,.48,1.1,6,6,0,0,1,0,1.53,1.17,1.17,0,0,1-.08.67,1.23,1.23,0,0,1-.46.39c-.66.27-.82-.35-1.19-.69a1,1,0,0,0-.15-.14c-.06,0-.16,0-.2,0s-.05-.29-.1-.39c-.28-.11-.44.07-.6.26a7.83,7.83,0,0,1-1,1,5,5,0,0,0-1,.93,1.56,1.56,0,0,0-.1.92c.36,0,.6.42.67.68s.1.59.19.88-.1.89.06,1.15.32,0,.46.05c-.05,0,.4-.4.43-.42.23-.17.48-.32.73-.48a17,17,0,0,0,1.42-1,6.25,6.25,0,0,1,.9-.73c.21-.13.46-.24.56-.49l1.73,0v.42h.46s0,1.19,0,1.29a1.33,1.33,0,0,1-.56.75,8.22,8.22,0,0,0-.88.89c-.33.42-.59.89-.9,1.34a7.54,7.54,0,0,0-.69.89A4.36,4.36,0,0,0,12,50.62h-.42v2a6.52,6.52,0,0,0,.21,1.76,2.59,2.59,0,0,1,.21.77,17.39,17.39,0,0,1,0,2.17H11.2a1.59,1.59,0,0,0-.26-.26c-.15-.1-.32-.14-.46-.24a2.56,2.56,0,0,1-.74-.92c-.22-.4-.5-.73-.73-1.13A5.41,5.41,0,0,0,8.56,54,5.81,5.81,0,0,1,8,53.19a3.52,3.52,0,0,1-.38-.78,1.6,1.6,0,0,0-.33-.77c-.19-.23-.64-.64-.62-1-.06-.16-.25-.24-.35-.39a2.6,2.6,0,0,0-.21-.36c-.28-.33-.59-.62-.84-1a5.16,5.16,0,0,0-.92-1A10.81,10.81,0,0,0,3,47.06l-1-.53a4.51,4.51,0,0,0-.66-.42H.05c0-.41-.07-.75,0-1.2.09-.08.3,0,.46,0v-4H.89c.11,0,0-.29,0-.42s3,0,3.27,0c1,0,1.43-.52,2.13-1.17a18.18,18.18,0,0,1,2-1.61c.19-.14.41-.3.59-.46a2,2,0,0,0,.18-.21"/><path class="cls-1" d="M51.55,50.33c-.17-.62-.45-1.22-.57-1.85a18.68,18.68,0,0,0-.45-1.86c-.08-.24-.23-.45-.31-.68s0-.66-.09-1a6.07,6.07,0,0,1,1.16.09c.58-.29.07-1.66.56-2,0-.32-.06-1,.3-1.13s.33,0,.54,0a2.76,2.76,0,0,1,1.28.74.16.16,0,0,1,0,.09c.68.29.56,2,.67,2.63A11.65,11.65,0,0,0,55.42,48a11.25,11.25,0,0,1,.89,2.24A3.16,3.16,0,0,1,57,51.55a4.71,4.71,0,0,0,.12.54c.1.25.33.42.41.68s.15.54.27.81c.39.91,1.33,1.65,2.29.85.19-.15,0-1.66,0-1.93,0-.69,0-1.36,0-2,0-1.38-.07-2.75-.1-4.13s0-2.82-.06-4.23a4.85,4.85,0,0,1,0-1.75,2,2,0,0,1,1-.72,2.67,2.67,0,0,1,1.05,0c.22.15.46,1,.59,1.25a7.28,7.28,0,0,1,.77,1.92c.08.35.32.63.4,1a9.86,9.86,0,0,1,.15,2l0,1.28a4.93,4.93,0,0,0,0,1.33c0,.1.25,0,.36,0,.08,1.62,0,3.24,0,4.86a4,4,0,0,1-.42,1.93,4,4,0,0,1-1.21,1.49,3.85,3.85,0,0,1-1.61.61c-.64.12-1,.5-1.71.5-.55,0-1.1,0-1.66,0a4.16,4.16,0,0,1-2.19-.93c-.35-.22-1.08-.49-1.25-.89-.49-.16-.8-1.24-1-1.67s-.37-.67-.53-1a14.73,14.73,0,0,1-1.14-2.76c0-.06,0-.11,0-.17"/><path class="cls-1" d="M34.92,61.34a5.78,5.78,0,0,1,0-.73c0-.51,0-1,0-1.54s0-1.27,0-1.9c0-.32,0-.65,0-1s-.12-.83,0-1a10.68,10.68,0,0,1,1.06-1.35A10.34,10.34,0,0,1,39,55.78c.94.72,1.82,1.52,2.83,2.18.06,0,.06-.06.14-.05.24-.22,0-.56,0-.83-.37-2-.55-4.18-1-6.2-.16-.64-.34-1.12.34-1.52.48-.29,1.07-.34,1.52-.67s.8-.72,1.21-1a5,5,0,0,1,.65-.41c.28-.17.44-.48.75-.58a4,4,0,0,1,1.24,0,1.23,1.23,0,0,1,.47.09c.13.06.26.27.36.3.34.13.67.7.89,1a3.76,3.76,0,0,1,.71,2,6.2,6.2,0,0,0,.23,1.61c.13.31.4.5.51.84s.2.77.32,1.14a25,25,0,0,0,.93,2.55,5.89,5.89,0,0,1,.76,2.31c0,.39-.56,4.67-.53,4.67a1.75,1.75,0,0,1-1.77-.79c0-2.55-1.51-3.51-2.42-5.11a5.86,5.86,0,0,1-1.06-1.11c-.23-.33-.27-.77-.6-1C45.35,55,44,54.61,44,55c0,1.31-.46,2.44-.55,3.57a2.46,2.46,0,0,0,0,.47c.11,2,1.35,3.65,2.08,5.06,0,.78,0,1.43,0,2.19h-.42v.88h-.74s-.07-.55-.09-.6-.09-.14-.22-.28a9.81,9.81,0,0,0-.71-.73,6.49,6.49,0,0,1-1.09-1.26c-.33-.52-.73-1-1-1.52s-1-1.07-1.39-1.67c-.2-.31-.75-1.29-1.17-1.37-1.08-.23-1.13.58-1,1.39a26,26,0,0,0,.62,3.72c.16.66.32,1.33.43,2A10.71,10.71,0,0,1,38.8,68,3,3,0,0,0,39,69a3.2,3.2,0,0,1,.36,1.08,1.18,1.18,0,0,1-.18.85c-.38.53-.58.27-.73-.2a12,12,0,0,0-.75-1.58c-.26-.61-.61-1.2-.91-1.79a9.12,9.12,0,0,1-.6-1.83,14.77,14.77,0,0,0-.54-1.39A8.81,8.81,0,0,1,35,62.1c0-.27-.08-.52-.12-.76"/><path class="cls-1" d="M84.83,60h0"/></g></g></svg>