<svg xmlns="http://www.w3.org/2000/svg" viewBox="0 0 98.71 29.59"><defs><style>.cls-1{fill:#85c446;}.cls-2{fill:#5d6267;}</style></defs><g id="Layer_2" data-name="Layer 2"><g id="Layer_1-2" data-name="Layer 1"><path class="cls-1" d="M37.11,11.7a10.53,10.53,0,0,0-.56-3.48A6.09,6.09,0,0,0,30.75,4c-1.91-.09-3.83,0-5.75,0-.29,0-.38.09-.38.38,0,2.53,0,5.07,0,7.6s0,5.06,0,7.59c0,.28.08.36.36.36,1.71,0,3.43,0,5.14,0a9.92,9.92,0,0,0,1.8-.2,5.93,5.93,0,0,0,4.63-4,11.12,11.12,0,0,0,.56-3.89m-4.35,3a3.48,3.48,0,0,1-1.29,2.09,2.5,2.5,0,0,1-1.42.46c-.37,0-.74,0-1.11,0s-.37-.11-.37-.38c0-.78,0-1.57,0-2.35V7.08c0-.61,0-.61.59-.6a8.16,8.16,0,0,1,1.31.07,2.46,2.46,0,0,1,2,1.67A10.08,10.08,0,0,1,33,10.45a11.39,11.39,0,0,1-.24,4.23"/><path class="cls-1" d="M21.8,4.91,20.34,7.07a19.74,19.74,0,0,0-1.88-.7,3.25,3.25,0,0,0-2.13.08,1.48,1.48,0,0,0-.53,2.49,10.2,10.2,0,0,0,1.86,1.31,16.5,16.5,0,0,1,3.05,2.06,4.28,4.28,0,0,1,.57,5.7,4.7,4.7,0,0,1-2.61,1.74,9.82,9.82,0,0,1-7.08-.64,6.58,6.58,0,0,1-.63-.38l-.24-.18,1.7-2.3a4.87,4.87,0,0,0,1.94,1,4.68,4.68,0,0,0,2.29.11A1.67,1.67,0,0,0,18,16.19a1.69,1.69,0,0,0-.65-1.91c-.66-.51-1.41-.91-2.11-1.36a24.35,24.35,0,0,1-2.48-1.66,4.06,4.06,0,0,1,.61-6.68,7.47,7.47,0,0,1,4-.93A8,8,0,0,1,21.48,4.7a2.85,2.85,0,0,1,.32.21"/><path class="cls-1" d="M0,3.91H.69l8.07,0c.46,0,.47,0,.47.45,0,.6,0,1.19,0,1.79,0,.29-.1.35-.37.35H4.33c-.31,0-.43.08-.42.41,0,1,0,2.08,0,3.13,0,.33.11.4.42.4,1.43,0,2.87,0,4.31,0,.28,0,.36.09.36.37,0,.65,0,1.3,0,2,0,.25-.06.34-.34.34H4.45c-.6,0-.53,0-.53.52q0,2.94,0,5.88c0,.3-.06.41-.38.4-1.06,0-2.11,0-3.16,0l-.38,0Z"/><path class="cls-2" d="M52.15,10.49c0,.09-.09.18-.12.27-1.08,2.87-2.16,5.74-3.22,8.61a.59.59,0,0,1-.68.47c-.76,0-.76,0-1-.71L44,10.76a.47.47,0,0,0-.18-.24c0,.12,0,.24,0,.36v8.51c0,.44,0,.44-.45.44H40.21c-.28,0-.37-.08-.37-.36q0-7.57,0-15.16c0-.3.1-.38.39-.38H44.5a.51.51,0,0,1,.56.4c.79,2.15,1.6,4.29,2.4,6.44L47.94,12H48l.22-.57c.94-2.41,1.88-4.82,2.8-7.23a.41.41,0,0,1,.44-.31h4.27c.28,0,.37.09.37.37q0,7.59,0,15.19c0,.27-.09.35-.35.34h-3.1c-.32,0-.42-.09-.42-.41,0-2.84,0-5.67,0-8.51,0-.13,0-.27,0-.41h-.1"/><path class="cls-2" d="M69.77,11.38a4.81,4.81,0,0,0-2.35-2.69A6.72,6.72,0,0,0,64.5,8c-.36,0-.72.05-1.07.1a4.92,4.92,0,0,0-4,2.83,7.23,7.23,0,0,0-.51,4.69,5.09,5.09,0,0,0,3.08,4,6.59,6.59,0,0,0,4.38.22,4.82,4.82,0,0,0,3.31-2.91,7.29,7.29,0,0,0,.09-5.56m-3.12,2.53a8.46,8.46,0,0,1-.43,2.68,1.84,1.84,0,0,1-1.76,1.22,1.81,1.81,0,0,1-1.69-1.26,7.23,7.23,0,0,1-.32-3.36,7.92,7.92,0,0,1,.3-1.54,1.81,1.81,0,0,1,2.94-.89,2.19,2.19,0,0,1,.72,1.37c0,.16.06.32.08.48.05.32.08.63.11.91s0,.27.05.39"/><path class="cls-2" d="M78.84,13.91a9.57,9.57,0,0,1,5.27-7.58,9.52,9.52,0,0,1,10.79,1c3.17,2.46,4.26,5.84,3.64,9.78a10.11,10.11,0,0,0-7.22-9.49,9.91,9.91,0,0,0-7.49.68,10.33,10.33,0,0,0-5,5.61"/><path class="cls-2" d="M78.41,28.36a10.12,10.12,0,0,0,8.75-17.91A9.56,9.56,0,0,1,93,17.78a9.61,9.61,0,0,1-4.34,10.13,9.74,9.74,0,0,1-10.22.45"/><path class="cls-2" d="M80.83,2a10.18,10.18,0,0,0-4.38,11.73,10,10,0,0,0,4.47,5.63A10.13,10.13,0,0,0,88,20.59,9.67,9.67,0,0,1,78.94,20a9.5,9.5,0,0,1-4.81-9.27c.32-4.3,2.72-7.17,6.7-8.75"/><path class="cls-2" d="M97.93,23.44a2,2,0,0,1-2.08,2.09,2.07,2.07,0,0,1-2.09-2.11,2.14,2.14,0,0,1,2.09-2.12,2.1,2.1,0,0,1,2.08,2.14"/><path class="cls-2" d="M72.34,20.25a2.09,2.09,0,1,1,2.09,2.12,2.06,2.06,0,0,1-2.09-2.12"/><path class="cls-2" d="M93.36,2.14A2.08,2.08,0,1,1,89.21,2a2.08,2.08,0,1,1,4.15.11"/><path class="cls-2" d="M.3,27H.81V24.07H.3Zm1.6,0V25.77c0-.31,0-.61,0-.89h0l.52.71L3.48,27H4V24.07h-.5V25.3c0,.31,0,.61,0,.89h0L3,25.48,1.89,24.07H1.4V27Zm3.49,0h.53L7,24.07H6.51L6,25.5c-.11.28-.21.56-.31.83h0l-.3-.82-.54-1.44H4.27Zm2,0H9.13v-.46H7.85v-.85H8.93v-.43H7.85v-.73H9.09v-.46H7.34Zm2.21-.17a1.94,1.94,0,0,0,.89.21c.61,0,1-.33,1-.88s-.38-.73-.82-.86-.66-.15-.66-.46.2-.35.47-.35a1.71,1.71,0,0,1,.88.27v-.52a1.89,1.89,0,0,0-.87-.21c-.6,0-1,.32-1,.85s.37.7.79.83.69.16.69.48-.21.39-.5.39a1.69,1.69,0,0,1-.89-.29Zm3.07.17h.52V24.53h1v-.46H11.67v.46h.95Zm1.86,0H15V24.07h-.51Zm1.6,0V25.77c0-.31,0-.61,0-.89h0l.52.71L17.66,27h.49V24.07h-.5V25.3c0,.31,0,.61,0,.89h0l-.52-.71-1.06-1.41h-.49V27Zm2.66,0h.75a2,2,0,0,0,1.27-.33,1.4,1.4,0,0,0,.54-1.14,1.37,1.37,0,0,0-.61-1.19,2,2,0,0,0-1.13-.27h-.82Zm.52-.46v-2h.27a1.55,1.55,0,0,1,.85.18,1,1,0,0,1,0,1.62,1.39,1.39,0,0,1-.87.21Zm3.83,0a1,1,0,0,1-1-1,1,1,0,1,1,2,0,1,1,0,0,1-1,1m0,.46a1.51,1.51,0,1,0-1.51-1.51A1.48,1.48,0,0,0,23.09,27M26,27h1.79v-.46H26.54v-.85h1.07v-.43H26.54v-.73h1.23v-.46H26Zm2.25,0h.5V24.92h0c.12.19.25.37.39.57l.55.78.55-.78c.14-.2.27-.38.39-.57h0c0,.2,0,.41,0,.63V27h.52V24.07h-.49l-1,1.36-.95-1.36h-.5Zm4.47,0h.51V24.07h-.51Zm1.6,0V25.77c0-.31,0-.61,0-.89h0l.52.71L35.92,27h.49V24.07h-.5V25.3c0,.31,0,.61,0,.89h0l-.52-.71-1.06-1.41h-.49V27Zm2.52-1.46A1.48,1.48,0,0,0,38.42,27a1.66,1.66,0,0,0,.86-.21v-.54a1.35,1.35,0,0,1-.83.29,1,1,0,0,1-1.08-1,1,1,0,0,1,1.05-1,1.51,1.51,0,0,1,.82.26v-.53a1.8,1.8,0,0,0-.82-.19,1.49,1.49,0,0,0-1.56,1.51M39.76,27H41.6v-.46H40.27V24.07h-.51Zm2.4-.43a1.16,1.16,0,0,0,1,.47,1.19,1.19,0,0,0,1-.46,1.82,1.82,0,0,0,.21-1V24.07h-.5v1.51a1.44,1.44,0,0,1-.12.7.63.63,0,0,1-.6.3.65.65,0,0,1-.62-.31,1.46,1.46,0,0,1-.11-.69V24.07H42v1.54a1.73,1.73,0,0,0,.2,1m2.78.26a2,2,0,0,0,.89.21c.61,0,1-.33,1-.88s-.39-.73-.82-.86-.66-.15-.66-.46.19-.35.47-.35a1.68,1.68,0,0,1,.87.27v-.52a1.89,1.89,0,0,0-.87-.21c-.59,0-1,.32-1,.85s.38.7.8.83.68.16.68.48-.2.39-.5.39a1.69,1.69,0,0,1-.89-.29Zm3.75-2.76h-.5L47,27h.53l.28-.72h1.27l.27.72h.55Zm-.55,1.35.29-.78h0c.09.26.19.52.29.78l.17.44H48Zm.27-1.8a.77.77,0,0,0,.34.1.42.42,0,0,0,.34-.17v-.37h0a.45.45,0,0,1-.33.19.65.65,0,0,1-.28-.09.77.77,0,0,0-.34-.1.41.41,0,0,0-.34.17v.37h0a.49.49,0,0,1,.34-.19.65.65,0,0,1,.28.09m3,3a1,1,0,0,1-1-1,1,1,0,1,1,2,0,1,1,0,0,1-1,1m0,.46a1.51,1.51,0,1,0-1.51-1.51A1.48,1.48,0,0,0,51.45,27m2.93,0h.52V25.75H56v-.44H54.9v-.78h1.27v-.46H54.38Zm2.27,0h.52V24.07h-.52Zm1.6,0V24.88h0l.53.71L59.84,27h.48V24.07h-.5V25.3c0,.31,0,.61,0,.89h0l-.52-.71-1.06-1.41h-.48V27Zm4.09-2.93h-.5L60.63,27h.53l.29-.72h1.26L63,27h.55Zm-.56,1.35c.1-.26.2-.51.29-.78h0l.29.78.17.44h-.93ZM64.34,27V24.88h0l.53.71L65.93,27h.48V24.07h-.5V25.3c0,.31,0,.61,0,.89h0l-.52-.71-1.06-1.41h-.48V27Zm2.52-1.46A1.49,1.49,0,0,0,68.43,27a1.63,1.63,0,0,0,.85-.21v-.54a1.35,1.35,0,0,1-.83.29,1,1,0,0,1-1.08-1,1,1,0,0,1,1-1,1.45,1.45,0,0,1,.82.26v-.53a1.8,1.8,0,0,0-.82-.19,1.49,1.49,0,0,0-1.56,1.51M69.76,27h1.79v-.46H70.28v-.85h1.07v-.43H70.28v-.73h1.23v-.46H69.76ZM72,27h.52V24.07H72Zm1.11,0h.51V25.79H74L74.84,27h.61l-.88-1.27a.8.8,0,0,0,.65-.8.79.79,0,0,0-.42-.71,1.71,1.71,0,0,0-.83-.15h-.85Zm.51-1.61v-.86H74a1.14,1.14,0,0,1,.54.08.37.37,0,0,1,.21.35.36.36,0,0,1-.15.32.86.86,0,0,1-.51.11Zm3.59-1.32h-.5L75.52,27h.53l.28-.72H77.6l.28.72h.54Zm-.55,1.35.29-.78h0c.09.26.19.52.29.78l.17.44H76.5Z"/></g></g></svg>